<svg width="132" height="29" viewBox="0 0 132 29" fill="none" xmlns="http://www.w3.org/2000/svg">
<g clip-path="url(#clip0_1_77)">
<path d="M2.6081 22.8014C2.6081 23.4494 2.45097 23.8969 2.13672 24.1592C1.82247 24.4215 1.30396 24.5603 0.581183 24.5603C0.486908 24.5603 0.376922 24.5603 0.282647 24.5449C0.188372 24.5449 0.094096 24.5295 0.0155334 24.5295V27.8005C0.141234 27.8159 0.329784 27.8313 0.565472 27.8468C0.80116 27.8622 1.02113 27.8622 1.2254 27.8622C3.12661 27.8622 4.57216 27.4456 5.56205 26.6124C6.55194 25.7792 7.03903 24.5449 7.03903 22.9402V6.67775H2.6081V22.8014ZM4.82356 0.104858C4.16364 0.104858 3.59799 0.320867 3.14232 0.768317C2.68666 1.21577 2.45097 1.74036 2.45097 2.35754C2.45097 2.97471 2.68666 3.49931 3.14232 3.96219C3.59799 4.40964 4.16364 4.64108 4.82356 4.64108C5.48349 4.64108 6.04914 4.40964 6.5048 3.96219C6.96046 3.51474 7.18044 2.97471 7.18044 2.35754C7.18044 1.74036 6.96046 1.20034 6.5048 0.768317C6.04914 0.320867 5.4992 0.104858 4.82356 0.104858ZM20.5518 15.8273C20.5518 16.5062 20.4104 17.1234 20.1433 17.648C19.8762 18.1726 19.4991 18.5892 19.0277 18.8823C18.5563 19.1755 17.9749 19.3298 17.315 19.3298C16.3251 19.3298 15.5866 19.0366 15.0838 18.4657C14.581 17.8949 14.3296 17.0771 14.3296 16.0433V6.67775H9.91442V16.9537C9.91442 18.188 10.1344 19.2526 10.5586 20.1475C10.9986 21.0424 11.6271 21.7213 12.4598 22.1996C13.2926 22.6779 14.3139 22.9248 15.4924 22.9248C16.7179 22.9248 17.755 22.6625 18.572 22.1379C19.4048 21.6133 20.0176 20.8881 20.4261 19.9624H20.5361V22.5854H24.9513V6.67775H20.5361V15.8273H20.5518ZM40.8524 7.32578C39.8625 6.66232 38.684 6.3383 37.317 6.3383C36.5471 6.3383 35.8401 6.46174 35.2116 6.7086C34.5674 6.95547 34.0174 7.31035 33.5303 7.77323C33.0432 8.23611 32.6661 8.79156 32.3676 9.43959H32.2576V6.66232H27.8424V27.7851H32.2576V19.8698H32.3519C32.6504 20.5024 33.0432 21.0424 33.5303 21.4899C34.0174 21.9373 34.5831 22.2922 35.243 22.5391C35.9029 22.786 36.61 22.9094 37.3799 22.9094C38.7469 22.9094 39.9096 22.5699 40.8838 21.9219C41.858 21.2585 42.6122 20.3018 43.1464 19.0675C43.6806 17.8331 43.9477 16.3519 43.9477 14.6238V14.6084C43.9477 12.8803 43.6806 11.3991 43.1464 10.1648C42.5964 8.94586 41.8265 7.98924 40.8524 7.32578ZM39.4225 14.6393C39.4225 15.5959 39.2811 16.4291 38.9983 17.1388C38.7155 17.8486 38.3069 18.3886 37.757 18.7589C37.2228 19.1446 36.5943 19.3298 35.8558 19.3298C35.133 19.3298 34.5202 19.1446 33.9703 18.7589C33.4361 18.3732 33.0118 17.8331 32.6976 17.1388C32.3833 16.4291 32.2419 15.6113 32.2419 14.6547V14.6393C32.2419 13.6827 32.399 12.8495 32.6976 12.1397C32.9961 11.43 33.4203 10.8899 33.9703 10.5196C34.5202 10.1339 35.1487 9.94876 35.8558 9.94876C36.5786 9.94876 37.2071 10.1339 37.7413 10.5196C38.2755 10.8899 38.684 11.43 38.9826 12.1243C39.2811 12.8186 39.4225 13.6518 39.4225 14.6393ZM46.2889 22.6008H50.7198V6.67775H46.2889V22.6008ZM48.5201 0.104858C47.8601 0.104858 47.2945 0.320867 46.8388 0.768317C46.3832 1.21577 46.1475 1.74036 46.1475 2.35754C46.1475 2.97471 46.3832 3.49931 46.8388 3.96219C47.2945 4.40964 47.8601 4.64108 48.5201 4.64108C49.18 4.64108 49.7456 4.40964 50.2013 3.96219C50.657 3.51474 50.8769 2.97471 50.8769 2.35754C50.8769 1.74036 50.657 1.20034 50.2013 0.768317C49.7456 0.320867 49.18 0.104858 48.5201 0.104858ZM59.2831 2.77413H54.8208V6.66232H52.5739V9.93333H54.8208V18.1263C54.8208 19.8235 55.2607 21.0579 56.1249 21.7985C56.9891 22.5391 58.3247 22.9094 60.1159 22.9094C60.5873 22.9094 60.9958 22.894 61.3572 22.8631C61.7186 22.8322 62.0171 22.786 62.2528 22.7551V19.5767C62.1271 19.5921 61.9857 19.6075 61.8286 19.6229C61.6714 19.6384 61.4986 19.6384 61.2943 19.6384C60.6344 19.6384 60.1316 19.4995 59.7859 19.2064C59.4403 18.9132 59.2831 18.404 59.2831 17.648V9.9179H62.2528V6.64689H59.2831V2.77413ZM75.5299 7.32578C74.3829 6.66232 73.0002 6.3383 71.4289 6.3383C69.8419 6.3383 68.475 6.67775 67.3122 7.35664C66.1495 8.03553 65.2382 8.99214 64.594 10.2419C63.9498 11.4917 63.6198 12.9575 63.6198 14.6393V14.6547C63.6198 16.3519 63.9498 17.8177 64.594 19.0521C65.2382 20.2864 66.1495 21.243 67.3437 21.9065C68.5378 22.5699 69.9519 22.9094 71.6018 22.9094C72.7645 22.9094 73.7701 22.7551 74.6343 22.4619C75.4985 22.1688 76.2212 21.7676 76.834 21.2739C77.4311 20.7801 77.9182 20.2401 78.2639 19.6384C78.6095 19.0521 78.8452 18.4503 78.9709 17.864L79.0181 17.6943H74.9642L74.9328 17.7869C74.8385 18.08 74.6343 18.3732 74.3514 18.6663C74.0686 18.9595 73.7072 19.1909 73.2673 19.3761C72.8273 19.5612 72.2931 19.6538 71.696 19.6538C70.9261 19.6538 70.2662 19.4841 69.7162 19.1601C69.1663 18.836 68.7421 18.3577 68.4435 17.7251C68.1607 17.1388 68.035 16.4445 68.0193 15.6422H79.1752V14.2844C79.1752 12.6798 78.8609 11.2757 78.2324 10.0876C77.5882 8.915 76.6926 7.98924 75.5299 7.32578ZM68.0821 12.9266C68.145 12.402 68.255 11.9083 68.4435 11.5071C68.7421 10.8745 69.1506 10.3962 69.6848 10.0722C70.219 9.74818 70.8161 9.57846 71.5075 9.57846C72.1988 9.57846 72.7959 9.73275 73.3144 10.0568C73.8329 10.3808 74.2414 10.8437 74.5243 11.4763C74.7128 11.8929 74.8228 12.3866 74.8857 12.9266H68.0821ZM90.3311 6.38459C90.1111 6.35373 89.8754 6.3383 89.6397 6.3383C88.6813 6.3383 87.8799 6.6006 87.22 7.14063C86.5601 7.68065 86.1201 8.42126 85.8687 9.37788H85.7744V6.66232H81.4378V22.6008H85.853V13.6364C85.853 12.8958 85.9944 12.2632 86.2615 11.7386C86.5286 11.214 86.9215 10.8128 87.44 10.5351C87.9585 10.2573 88.5713 10.1185 89.294 10.1185C89.624 10.1185 89.9225 10.1339 90.2054 10.1802C90.4882 10.2265 90.7239 10.2882 90.8967 10.3654V6.53888C90.7396 6.46174 90.551 6.41545 90.3311 6.38459Z" fill="black"/>
<path d="M116.791 22.6009L109.076 11.8776L106.374 15.6423L111.37 22.6009H116.791Z" fill="#FC4CDA"/>
<path d="M95.9406 22.6009H101.377L106.374 15.6423L103.655 11.8776L95.9406 22.6009Z" fill="#0077FF"/>
<path d="M103.655 11.8775L106.374 15.6423L109.076 11.8775L106.374 8.11279L103.655 11.8775Z" fill="#3613FA"/>
<path d="M111.37 1.15417L106.374 8.1128L109.076 11.8776L116.791 1.15417H111.37Z" fill="#2CE5E5"/>
<path d="M101.377 1.15417H95.9406L103.655 11.8776L106.374 8.1128L101.377 1.15417Z" fill="#3613FA"/>
<path d="M109.076 11.8775L106.374 8.11279L103.655 11.8775L106.374 15.6423L109.076 11.8775Z" fill="#0400B5"/>
</g>
<defs>
<clipPath id="clip0_1_77">
<rect width="131.042" height="27.9271" fill="white" transform="translate(3.05176e-05 0.0741272)"/>
</clipPath>
</defs>
</svg>
