<svg width="15" height="14" viewBox="0 0 15 14" fill="none" xmlns="http://www.w3.org/2000/svg">
<path d="M13.7166 7.97765C13.5727 7.9417 13.4289 7.97765 13.3031 8.06754C12.8357 8.46304 12.2964 8.78663 11.7031 9.00235C11.1458 9.21808 10.5346 9.32594 9.88743 9.32594C8.43128 9.32594 7.10097 8.7327 6.14818 7.77991C5.1954 6.82712 4.60215 5.49681 4.60215 4.04066C4.60215 3.42944 4.71001 2.83619 4.88978 2.29688C5.08753 1.72161 5.37517 1.20027 5.75269 0.750841C5.91448 0.553092 5.87853 0.265458 5.68078 0.103664C5.55494 0.0137778 5.41112 -0.0221765 5.2673 0.0137778C3.73925 0.427252 2.40894 1.34409 1.45615 2.56653C0.539315 3.771 0 5.26311 0 6.88105C0 8.84056 0.790995 10.6203 2.08535 11.9147C3.3797 13.209 5.14146 14 7.11895 14C8.77285 14 10.3009 13.4247 11.5234 12.4719C12.7638 11.5012 13.6626 10.1169 14.0402 8.53495C14.1121 8.28327 13.9682 8.03159 13.7166 7.97765Z" fill="white"/>
</svg>
