<svg width="21" height="21" viewBox="0 0 21 21" fill="none" xmlns="http://www.w3.org/2000/svg">
<g clip-path="url(#clip0_652_269)">
<path d="M19.7892 3.25895C19.3594 3.21977 18.9794 3.53637 18.9402 3.96605L18.8367 5.10156C17.0805 2.34352 14.0319 0.5 10.4995 0.5C6.69948 0.5 3.35061 2.66883 1.68819 5.92398C1.49194 6.30824 1.64436 6.77883 2.02862 6.97508C2.41296 7.17133 2.88346 7.01895 3.07971 6.63465C4.48663 3.8798 7.3119 2.0625 10.4995 2.0625C13.4049 2.0625 16.0268 3.57543 17.5289 5.94563L16.415 5.15004C16.0639 4.8993 15.5759 4.98063 15.3252 5.33172C15.0744 5.68285 15.1558 6.17074 15.5069 6.42152L18.8848 8.83406C19.3799 9.18699 20.0627 8.86391 20.1169 8.26926L20.4962 4.10793C20.5354 3.6782 20.2189 3.29812 19.7892 3.25895Z" fill="#666666"/>
<path d="M18.9709 14.0249C18.5866 13.8287 18.116 13.9811 17.9198 14.3653C16.5128 17.1202 13.6876 18.9375 10.5 18.9375C7.59461 18.9375 4.97265 17.4246 3.47054 15.0544L4.58449 15.85C4.93562 16.1007 5.42351 16.0194 5.67429 15.6683C5.92504 15.3171 5.84371 14.8292 5.49261 14.5785L2.11468 12.1659C1.62566 11.8166 0.937301 12.13 0.882614 12.7307L0.503278 16.8921C0.464098 17.3217 0.7807 17.7018 1.21035 17.741C1.64058 17.7801 2.02015 17.4632 2.05929 17.0339L2.16281 15.8984C3.91898 18.6565 6.96757 20.5 10.5 20.5C14.3 20.5 17.6489 18.3312 19.3113 15.076C19.5075 14.6917 19.3551 14.2212 18.9709 14.0249Z" fill="#666666"/>
</g>
<defs>
<clipPath id="clip0_652_269">
<rect width="20" height="20" fill="white" transform="translate(0.5 0.5)"/>
</clipPath>
</defs>
</svg>
