<svg width="22" height="22" viewBox="0 0 22 22" fill="none" xmlns="http://www.w3.org/2000/svg">
<mask id="mask0_451_129" style="mask-type:luminance" maskUnits="userSpaceOnUse" x="0" y="0" width="22" height="22">
<path d="M0 0H22V22H0V0Z" fill="white"/>
</mask>
<g mask="url(#mask0_451_129)">
<path d="M5.54591 3.79498L5.18841 3.43748C4.83091 3.07998 4.25341 3.08915 3.90508 3.43748L3.89591 3.44665C3.53841 3.80415 3.53841 4.38165 3.89591 4.72998L4.25341 5.08748C4.61091 5.44498 5.17925 5.44498 5.53675 5.08748L5.54591 5.07832C5.90341 4.72998 5.90341 4.14332 5.54591 3.79498ZM2.75925 9.62494H1.82425C1.32008 9.62494 0.916748 10.0283 0.916748 10.5324V10.5416C0.916748 11.0458 1.32008 11.4491 1.82425 11.4491H2.75008C3.26341 11.4583 3.66675 11.0549 3.66675 10.5508V10.5416C3.66675 10.0283 3.26341 9.62494 2.75925 9.62494ZM11.0092 0.50415H11.0001C10.4867 0.50415 10.0834 0.907484 10.0834 1.41165V2.29165C10.0834 2.79582 10.4867 3.19915 10.9909 3.19915H11.0001C11.5134 3.20832 11.9167 2.80498 11.9167 2.30082V1.41165C11.9167 0.907484 11.5134 0.50415 11.0092 0.50415ZM18.1042 3.44665C17.7467 3.08915 17.1692 3.08915 16.8117 3.43748L16.4542 3.79498C16.0967 4.15248 16.0967 4.72998 16.4542 5.07832L16.4634 5.08748C16.8209 5.44498 17.3984 5.44498 17.7467 5.08748L18.1042 4.72998C18.4617 4.37248 18.4617 3.80415 18.1042 3.44665ZM16.4451 17.2884L16.8026 17.6458C17.1601 18.0033 17.7376 18.0033 18.0951 17.6458C18.4526 17.2884 18.4526 16.7108 18.0951 16.3533L17.7376 15.9959C17.3801 15.6384 16.8026 15.6475 16.4542 15.9959C16.0876 16.3624 16.0876 16.9309 16.4451 17.2884ZM18.3334 10.5324V10.5416C18.3334 11.0458 18.7367 11.4491 19.2409 11.4491H20.1667C20.6709 11.4491 21.0742 11.0458 21.0742 10.5416V10.5324C21.0742 10.0283 20.6709 9.62494 20.1667 9.62494H19.2409C18.7367 9.62494 18.3334 10.0283 18.3334 10.5324ZM11.0001 5.04165C7.96591 5.04165 5.50008 7.50748 5.50008 10.5416C5.50008 13.5758 7.96591 16.0416 11.0001 16.0416C14.0342 16.0416 16.5001 13.5758 16.5001 10.5416C16.5001 7.50748 14.0342 5.04165 11.0001 5.04165ZM10.9909 20.5792H11.0001C11.5042 20.5792 11.9076 20.1758 11.9076 19.6716V18.7916C11.9076 18.2875 11.5042 17.8841 11.0001 17.8841H10.9909C10.4867 17.8841 10.0834 18.2875 10.0834 18.7916V19.6716C10.0834 20.1758 10.4867 20.5792 10.9909 20.5792ZM3.89591 17.6366C4.25341 17.9941 4.83091 17.9941 5.18841 17.6366L5.54591 17.2791C5.90341 16.9217 5.89425 16.3441 5.54591 15.9959L5.53675 15.9867C5.17925 15.6292 4.60175 15.6292 4.24425 15.9867L3.88675 16.3441C3.53841 16.7108 3.53841 17.2791 3.89591 17.6366Z" fill="#666666"/>
</g>
</svg>
