<svg width="36" height="36" viewBox="0 0 36 36" fill="none" xmlns="http://www.w3.org/2000/svg">
<g clip-path="url(#clip0_1074_932)">
<path d="M18 0C8.05781 0 0 8.05781 0 18C0 27.9422 8.05781 36 18 36C27.9422 36 36 27.9422 36 18C36 8.05781 27.9422 0 18 0ZM16.3125 10.6875C16.3125 9.75937 17.0719 9 18 9C18.9281 9 19.6875 9.75586 19.6875 10.6875V19.6875C19.6875 20.6191 18.9316 21.375 18 21.375C17.0684 21.375 16.3125 20.6227 16.3125 19.6875V10.6875ZM18 28.125C16.7794 28.125 15.7894 27.135 15.7894 25.9144C15.7894 24.6938 16.7787 23.7038 18 23.7038C19.2213 23.7038 20.2106 24.6938 20.2106 25.9144C20.2078 27.1336 19.2234 28.125 18 28.125Z" fill="#FFB443"/>
</g>
<defs>
<clipPath id="clip0_1074_932">
<rect width="36" height="36" fill="white"/>
</clipPath>
</defs>
</svg>
