<svg width="21" height="21" viewBox="0 0 21 21" fill="none" xmlns="http://www.w3.org/2000/svg">
<g clip-path="url(#clip0_652_138)">
<path d="M17.8791 4.27362H14.8812V3.12061C14.8812 1.71855 13.7467 0.583984 12.3446 0.583984H8.65498C7.25291 0.583984 6.11835 1.71855 6.11835 3.12061V4.27362H3.12052C2.74233 4.27362 2.42871 4.58724 2.42871 4.96543C2.42871 5.34362 2.74233 5.65724 3.12052 5.65724H3.35112V16.9568C3.35112 18.8661 4.90077 20.4158 6.81016 20.4158H14.1894C16.0988 20.4158 17.6485 18.8661 17.6485 16.9568V5.65724H17.8791C18.2573 5.65724 18.5709 5.34362 18.5709 4.96543C18.5709 4.58724 18.2573 4.27362 17.8791 4.27362ZM7.50196 3.12061C7.50196 2.48415 8.01851 1.9676 8.65498 1.9676H12.3446C12.9811 1.9676 13.4976 2.48415 13.4976 3.12061V4.27362H7.50196V3.12061ZM16.2649 16.9568C16.2649 18.1005 15.3332 19.0322 14.1894 19.0322H6.81016C5.66637 19.0322 4.73474 18.1005 4.73474 16.9568V5.65724H16.2649V16.9568ZM9.34678 8.65507V16.0343C9.34678 16.4125 9.03316 16.7262 8.65498 16.7262C8.27679 16.7262 7.96317 16.4125 7.96317 16.0343V8.65507C7.96317 8.27688 8.27679 7.96326 8.65498 7.96326C9.03316 7.96326 9.34678 8.27688 9.34678 8.65507ZM13.0364 8.65507V16.0343C13.0364 16.4125 12.7228 16.7262 12.3446 16.7262C11.9664 16.7262 11.6528 16.4125 11.6528 16.0343V8.65507C11.6528 8.27688 11.9664 7.96326 12.3446 7.96326C12.7228 7.96326 13.0364 8.27688 13.0364 8.65507Z" fill="#F74850"/>
</g>
<defs>
<clipPath id="clip0_652_138">
<rect width="20" height="20" fill="white" transform="translate(0.5 0.5)"/>
</clipPath>
</defs>
</svg>
