<svg width="17" height="15" viewBox="0 0 17 15" fill="none" xmlns="http://www.w3.org/2000/svg">
<path d="M0.5 12.5C0.5 11.9469 0.947812 11.5 1.5 11.5H3.20813C3.59375 10.6156 4.475 10 5.5 10C6.525 10 7.37813 10.6156 7.79063 11.5H15.5C16.0531 11.5 16.5 11.9469 16.5 12.5C16.5 13.0531 16.0531 13.5 15.5 13.5H7.79063C7.37813 14.3844 6.525 15 5.5 15C4.475 15 3.59375 14.3844 3.20813 13.5H1.5C0.947812 13.5 0.5 13.0531 0.5 12.5ZM6.5 12.5C6.5 11.9469 6.05312 11.5 5.5 11.5C4.94688 11.5 4.5 11.9469 4.5 12.5C4.5 13.0531 4.94688 13.5 5.5 13.5C6.05312 13.5 6.5 13.0531 6.5 12.5ZM11.5 5C12.525 5 13.3781 5.61562 13.7906 6.5H15.5C16.0531 6.5 16.5 6.94688 16.5 7.5C16.5 8.05313 16.0531 8.5 15.5 8.5H13.7906C13.3781 9.38437 12.525 10 11.5 10C10.475 10 9.59375 9.38437 9.20938 8.5H1.5C0.947812 8.5 0.5 8.05313 0.5 7.5C0.5 6.94688 0.947812 6.5 1.5 6.5H9.20938C9.59375 5.61562 10.475 5 11.5 5ZM12.5 7.5C12.5 6.94688 12.0531 6.5 11.5 6.5C10.9469 6.5 10.5 6.94688 10.5 7.5C10.5 8.05313 10.9469 8.5 11.5 8.5C12.0531 8.5 12.5 8.05313 12.5 7.5ZM15.5 1.5C16.0531 1.5 16.5 1.94781 16.5 2.5C16.5 3.05312 16.0531 3.5 15.5 3.5H8.79062C8.37812 4.38438 7.525 5 6.5 5C5.475 5 4.59375 4.38438 4.20937 3.5H1.5C0.947812 3.5 0.5 3.05312 0.5 2.5C0.5 1.94781 0.947812 1.5 1.5 1.5H4.20937C4.59375 0.617188 5.475 0 6.5 0C7.525 0 8.37812 0.617188 8.79062 1.5H15.5ZM5.5 2.5C5.5 3.05312 5.94688 3.5 6.5 3.5C7.05312 3.5 7.5 3.05312 7.5 2.5C7.5 1.94781 7.05312 1.5 6.5 1.5C5.94688 1.5 5.5 1.94781 5.5 2.5Z" fill="#666666"/>
</svg>
