<svg width="18" height="15" viewBox="0 0 18 15" fill="none" xmlns="http://www.w3.org/2000/svg">
<path d="M9.00402 0.428574C11.7502 0.428574 14.0946 2.15424 15.0147 4.58103C16.7324 5.03505 18 6.60201 18 8.46429C18 10.6842 16.202 12.4821 13.9842 12.4821H13.1786C13.0902 12.4821 13.0179 12.4098 13.0179 12.3214V11.1161C13.0179 11.0277 13.0902 10.9554 13.1786 10.9554H13.9842C14.3111 10.9562 14.635 10.8922 14.9371 10.767C15.2392 10.6419 15.5134 10.458 15.744 10.2261C16.2141 9.75603 16.4732 9.12924 16.4732 8.46429C16.4732 7.33527 15.7118 6.34487 14.623 6.05156L13.8636 5.85067L13.5864 5.11741C13.4136 4.66139 13.1725 4.23148 12.8692 3.84375C12.5699 3.46005 12.2163 3.12255 11.8165 2.8413C10.9908 2.26072 10.0185 1.95335 9.00402 1.95335C7.98951 1.95335 7.01719 2.26072 6.19152 2.8413C5.79306 3.12164 5.43831 3.45946 5.13884 3.84375C4.83549 4.23148 4.59442 4.65938 4.42165 5.11741L4.14241 5.85268L3.38103 6.05156C2.85871 6.19018 2.38862 6.50156 2.05312 6.92947C1.72567 7.34933 1.54487 7.84755 1.52679 8.3779C1.50469 9.05692 1.7558 9.71183 2.2279 10.198C2.70201 10.6862 3.33884 10.9554 4.01585 10.9554H4.82143C4.90982 10.9554 4.98214 11.0277 4.98214 11.1161V12.3214C4.98214 12.4098 4.90982 12.4821 4.82143 12.4821H4.01585C1.79799 12.4821 0 10.6842 0 8.46429C0 6.6 1.27165 5.03103 2.9933 4.57902C3.91339 2.15223 6.25781 0.428574 9.00402 0.428574Z" fill="#666666"/>
<path d="M9.07089 6.38983C9.09282 6.40052 9.11203 6.41605 9.12706 6.43526L11.3771 9.28392C11.4594 9.38838 11.3851 9.54307 11.2505 9.54307H9.76189V14.4107C9.76189 14.4991 9.68956 14.5714 9.60117 14.5714H8.39581C8.30742 14.5714 8.2351 14.4991 8.2351 14.4107V9.54106H6.7505C6.72042 9.54113 6.69092 9.53273 6.66539 9.51682C6.63985 9.50091 6.61931 9.47814 6.6061 9.4511C6.5929 9.42407 6.58757 9.39387 6.59073 9.36395C6.59388 9.33403 6.60539 9.3056 6.62394 9.28191L8.87394 6.43526C8.88897 6.41605 8.90818 6.40052 8.93011 6.38983C8.95204 6.37915 8.97611 6.3736 9.0005 6.3736C9.02489 6.3736 9.04897 6.37915 9.07089 6.38983Z" fill="#666666"/>
</svg>
